<svg width="32" height="32" xmlns="http://www.w3.org/2000/svg">
  <g>
   <path stroke="null" d="m0.25136,28.40397c-0.16615,-2.87556 10.882,-11.54978 10.8066,-12.18285c-0.0754,-0.63306 -10.61645,-9.407 -10.73462,-11.73153c-0.11817,-2.32453 1.59715,-4.39664 3.58104,-4.28011c1.98389,0.11653 11.28081,10.62199 11.8515,10.7777c0.57069,0.15571 9.68527,-9.85578 12.27823,-9.95687c2.59296,-0.10109 3.30378,0.8239 3.38142,2.85766c0.07764,2.03376 -11.63496,11.7034 -11.53759,12.23304c0.09738,0.52962 11.71616,9.43627 11.86445,11.65096c0.14829,2.21469 -0.30719,3.75622 -3.34029,3.77682c-3.0331,0.0206 -12.70714,-10.62437 -13.4268,-10.77789c-0.71966,-0.15352 -9.66844,10.84212 -11.72938,10.8437c-2.06095,0.00158 -2.82841,-0.33508 -2.99456,-3.21064z" fill="#000000"/>
  </g>
 </svg>