<?xml version="1.0" encoding="UTF-8" standalone="no"?>
<!DOCTYPE svg PUBLIC "-//W3C//DTD SVG 1.1//EN" "http://www.w3.org/Graphics/SVG/1.1/DTD/svg11.dtd">
<svg version="1.1" xmlns="http://www.w3.org/2000/svg" xmlns:xlink="http://www.w3.org/1999/xlink" preserveAspectRatio="xMidYMid meet" viewBox="0 0 123 49" width="123" height="49"><defs><path d="M56.02 25.94C59.52 24.2 63.62 24.15 67.17 25.79C76.97 30.3 98.19 40.08 107.35 44.3C112.29 46.58 118.15 44.57 120.65 39.74C121.74 37.64 119.76 41.47 120.65 39.74C123.59 34.07 121.08 27.1 115.21 24.6C104.36 19.98 78.21 8.84 66.24 3.74C62.88 2.31 59.06 2.38 55.76 3.95C44.49 9.27 20.11 20.78 9.9 25.6C4.32 28.24 2.3 35.16 5.58 40.39C6.58 41.99 4.34 38.42 5.58 40.39C8.42 44.92 14.24 46.57 19.04 44.2C27.54 40 46.93 30.42 56.02 25.94Z" id="b1rEQ68fg"></path></defs><g><g><g><use xlink:href="#b1rEQ68fg" opacity="1" fill="#000000" fill-opacity="1"></use></g></g></g></svg>