<?xml version="1.0" encoding="utf-8"?>
<svg viewBox="0 0 500 500" width="500" height="500" xmlns="http://www.w3.org/2000/svg">
  <path d="M 361.848 138.724 C 376.645 137.771 389.671 139.055 392.261 158.081 C 393.813 169.479 391.597 175.272 381.763 181.978 C 377.152 185.122 359.301 182.031 354.565 182.031 C 334.341 182.031 282.395 180.868 266.906 179.993 C 261.864 179.708 263.176 180.96 262.606 188.052 C 260.761 210.996 262.31 219.228 261.451 249.636 C 260.863 270.442 263.797 380.871 264.148 399.457 C 264.396 412.607 264.999 424.003 264.999 436.825 C 264.999 446.616 248.39 459.447 244.719 459.447 C 234.649 459.447 227.542 456.322 223.664 446.312 C 218.963 434.177 223.169 329.708 221.77 312.965 C 220.547 298.331 220.393 244.027 219.85 227.391 C 219.316 211.032 222.396 208.659 219.992 187.952 C 219.206 181.18 220.421 180.968 218.735 180.791 C 200.868 178.912 185.161 180.021 175.718 179.715 C 169.885 179.526 134.018 182.355 119.354 181.878 C 103.293 181.355 88.202 179.995 83.832 168.478 C 81.918 163.434 85.083 153.751 86.641 150.618 C 88.361 147.158 99.655 140.817 103.963 140.312 C 117.938 138.674 242.058 138.809 262.967 139.523 L 361.848 138.724 Z" style="stroke: rgb(0, 0, 0);"/>
  <path d="M 201.591 76.391 C 203.526 65.95 211.355 51.558 225.489 52.494 C 233.168 53.002 239.858 63.06 239.217 73.34 C 238.609 83.103 235.647 86.383 233.37 90.882 C 230.674 96.211 225.728 103.819 222.693 105.118 C 216.937 107.583 212.415 105.954 210.236 104.865 C 205.358 102.425 199.266 88.933 201.591 76.391 Z" style="stroke: rgb(0, 0, 0);"/>
  <path d="M 259.381 74.504 C 261.316 64.063 270.844 52.829 284.978 53.765 C 292.657 54.273 299.347 64.331 298.706 74.611 C 298.098 84.374 296.063 88.284 293.448 92.595 C 290.752 97.04 287.589 101.599 281.566 104.127 C 276.274 106.348 268.823 104.509 265.149 101.814 C 261.034 98.796 257.056 87.046 259.381 74.504 Z" style="stroke: rgb(0, 0, 0);"/>
</svg>