<svg width="327" height="327" xmlns="http://www.w3.org/2000/svg">
 <g>
  <path id="svg_3" d="m167.948068,318.204532c-14.53013,0.51267 -21.11155,-17.69259 -20.00067,-37.1799l5.12819,-162.82011c-19.31619,1.53846 -46.8375,4.35897 -57.94857,4.61538c-4.95725,0.25642 -20.1709,-3.07691 -21.02559,-12.30766c-0.76924,-11.28203 12.30766,-13.58972 18.46149,-15.64099c18.88884,-5.55554 34.70077,-8.29058 54.35884,-11.02561c19.48788,-2.56361 35.89804,-4.35847 54.87238,-3.58924c18.97434,0.76923 29.99992,3.33332 35.3838,4.61487c6.66739,1.53896 16.41094,3.84663 17.43586,16.92304c0.76995,4.61588 0.76998,12.56457 -16.41022,13.84612c-23.58899,3.84665 -54.87093,2.05177 -54.87166,2.05127c0.76996,4.10306 13.59045,78.97455 7.17947,159.9996c-1.53773,13.59024 -0.76847,38.97477 -22.56332,40.51323z" stroke-width="0" stroke="#000" fill="#000000"/>
  <path id="svg_4" d="m121.024756,39.999712c-5.9829,-7.09401 -10.17093,-28.03416 0,-34.35894c9.23076,-5.89743 21.79485,0.25641 29.48715,14.87178c7.94871,13.07691 9.74358,28.20511 0,35.12818c-6.15384,3.07692 -15.64064,1.28229 -29.48715,-15.64102z" stroke-width="0" stroke="#ff0000" fill="#000000"/>
  <path id="svg_5" d="m174.358036,29.999722c-1.28205,-4.61538 -3.07692,-19.23075 7.17948,-23.33331c16.41024,-5.64102 22.05126,13.84614 21.79485,13.84614c0.25641,0 8.97435,26.15383 -5.1282,32.30766c-15.12819,4.8718 -22.56408,-18.20511 -23.84613,-22.82049z" stroke-width="0" stroke="#ff0000" fill="#000000"/>
 </g>
</svg>