<svg version="1.1" xmlns="http://www.w3.org/2000/svg" xmlns:xlink="http://www.w3.org/1999/xlink" preserveAspectRatio="xMidYMid meet" viewBox="0 0 230 230" width="230" height="230">
    <g opacity="1" fill="#000000" fill-opacity="1">
      <path d="M50.27 109.44C50.27 115.02 45.74 119.55 40.16 119.55C34.58 119.55 30.04 115.02 30.04 109.44C30.04 103.86 34.58 99.33 40.16 99.33C45.74 99.33 50.27 103.86 50.27 109.44Z"></path>
      <path d="M196.27 106.89C196.27 112.47 191.74 117 186.16 117C180.58 117 176.04 112.47 176.04 106.89C176.04 101.3 180.58 96.77 186.16 96.77C191.74 96.77 196.27 101.3 196.27 106.89Z"></path>
      <path d="M93.81 112.92C95.3 115.72 97.41 118.14 99.99 119.98C100.92 120.64 99.85 119.88 100.79 120.55C103.25 122.31 106.32 122.98 109.29 122.42C110.66 122.16 109.21 122.43 110.36 122.21C114.12 121.49 117.63 119.78 120.51 117.26C121.94 116 122.52 115.5 124.12 114.09C126.36 112.13 127.51 109.2 127.2 106.24C127.11 105.44 127.3 107.18 127.2 106.24C126.96 103.95 125.03 102.22 122.74 102.22C122 102.22 123.54 102.22 122.74 102.22C120.43 102.22 118.28 103.34 116.96 105.23C116.35 106.1 117.16 104.94 116.68 105.62C114.87 108.21 112.45 110.32 109.63 111.77C108.68 112.26 110.49 111.33 109.63 111.77C107.2 113.03 104.22 111.7 103.53 109.05C103.26 107.99 103.48 108.86 103.14 107.51C102.53 105.17 100.8 103.27 98.52 102.43C97.63 102.11 99.25 102.7 98.52 102.43C96.11 101.55 93.46 102.89 92.73 105.35C92.52 106.06 93 104.44 92.73 105.35C92.06 107.63 92.3 110.08 93.42 112.17C93.95 113.17 93.39 112.12 93.81 112.92Z"></path>
      <path d="M16.45 142.79C15.23 142.66 14.47 142.57 14.16 142.54C6.86 141.73 2.39 134.13 5.23 127.35C6.06 125.36 6.83 123.92 7.54 123.04C10.36 119.49 12.23 117.91 13.12 118.29L16.45 142.79Z"></path>
      <path d="M215.63 128.43C215.84 128.36 215.97 128.31 216.02 128.3C222.01 126.27 225.93 120.51 225.6 114.19C225.52 112.65 225.71 116.33 225.6 114.19C225.38 109.8 221.86 106.3 217.47 106.09C217.35 106.09 217.05 106.07 216.57 106.05L215.63 128.43Z"></path>
    </g>
    <path opacity="1" fill-opacity="0" stroke="#000000" stroke-width="14" stroke-opacity="1" d="M210.28 115C210.28 168.3 167.46 211.57 114.71 211.57C61.97 211.57 19.15 168.3 19.15 115C19.15 61.7 61.97 18.43 114.71 18.43C167.46 18.43 210.28 61.7 210.28 115Z"></path>
  </svg>