<svg 
  viewBox="0 0 101.56093 100.02866"
  version="1.1"
  xmlns="http://www.w3.org/2000/svg"
  xmlns:xlink="http://www.w3.org/1999/xlink"
>
  <g transform="translate(187.62321,7.4835468)">
    <path
       d="m -122.47426,-7.4490749 c -6.67779,0.042566 -12.9468,0.6225524 -17.01861,0.8826336 -9.60797,0.6136999 -33.25251,2.3773846 -39.09994,8.3979368 -7.03702,7.2453634 -9.01356,22.1502905 -8.91987,37.6550645 0.0947,15.673014 2.33397,31.950038 9.06301,39.908159 6.87544,8.131241 25.07377,13.123725 43.07954,12.910839 17.04991,-0.201584 33.92686,-5.153176 40.853842,-13.64361 6.76035,-7.69302 8.608083,-24.110622 8.254793,-39.982574 C -86.617193,22.699728 -88.541049,8.0747865 -93.958697,0.78918189 -99.079856,-6.0977076 -111.34464,-7.5200184 -122.47426,-7.4490749 Z m -8.63619,11.5750041 c 8.79422,-0.025551 22.44575,0.8186619 27.81073,5.5593504 4.845921,4.2820264 5.35027,18.1632174 5.565535,28.9971954 0.277087,13.944203 -0.311547,25.152424 -7.035745,33.009356 -4.49578,5.253122 -16.37737,10.20926 -30.98726,9.321395 -4.88315,-0.296759 -25.76261,-0.114787 -32.35513,-7.049701 -4.63571,-4.876467 -7.59261,-24.750996 -7.69461,-32.338592 -0.18876,-14.04199 1.54834,-25.423735 7.69461,-31.271477 3.86895,-3.6810049 15.38303,-5.0427256 30.31392,-6.0244385 1.36523,-0.089765 3.75656,-0.1945713 6.68795,-0.2030883 z"
       />
    <path
       d="m -137.37673,25.053024 c -14.56069,-0.133628 -25.24633,9.745192 -25.39016,22.918497 -0.13364,12.238648 12.69973,23.052338 26.05833,23.052341 13.35861,0 25.39072,-9.477243 25.39072,-22.651331 0,-13.174091 -11.49755,-23.185874 -26.05889,-23.319507 z m 0.60153,9.0873 c 7.58774,0.190309 14.09835,6.757051 14.09835,14.432711 0,7.67566 -6.77643,14.031698 -13.96453,14.031701 -8.5244,2e-6 -15.0342,-6.48988 -15.0342,-14.165543 0,-7.675663 8.91635,-14.448957 14.90038,-14.298869 z"
       />
    <path
       d="m -108.24419,17.235622 c 0,4.022341 -2.43689,7.550362 -7.75081,7.550363 -5.31392,-1e-6 -8.15172,-3.127118 -8.15172,-7.149459 0,-4.022341 2.30326,-7.416728 7.61718,-7.416729 5.31392,1e-6 8.28535,2.993483 8.28535,7.015825 z"
       />
  </g>
</svg>
